<?xml version="1.0" encoding="UTF-8"?>
<!-- Generator: https://ezgif.com/png-to-svg -->
<svg version="1.1" xmlns="http://www.w3.org/2000/svg" width="1114" height="1116">
<path d="M0,0 L15,0 L15,1 L19,1 L19,2 L23,2 L23,3 L25,3 L25,4 L28,4 L28,5 L30,5 L30,6 L31,6 L31,7 L33,7 L33,8 L34,8 L34,9 L36,9 L36,10 L37,10 L37,11 L38,11 L38,12 L39,12 L39,13 L40,13 L40,14 L41,14 L41,15 L42,15 L42,16 L43,16 L43,17 L44,17 L44,18 L45,18 L45,20 L46,20 L46,21 L47,21 L47,23 L48,23 L48,25 L49,25 L49,27 L50,27 L50,29 L51,29 L51,32 L52,32 L52,36 L53,36 L53,42 L54,42 L54,51 L53,51 L53,56 L52,56 L52,60 L51,60 L51,63 L50,63 L50,65 L49,65 L49,68 L48,68 L48,69 L47,69 L47,71 L46,71 L46,72 L45,72 L45,74 L44,74 L44,75 L43,75 L43,76 L42,76 L42,77 L41,77 L41,78 L40,78 L40,79 L39,79 L39,80 L38,80 L38,81 L37,81 L37,82 L36,82 L36,83 L34,83 L34,84 L33,84 L33,85 L31,85 L31,86 L29,86 L29,87 L28,87 L28,88 L25,88 L25,89 L23,89 L23,90 L19,90 L19,91 L18,91 L18,314 L133,314 L133,313 L134,313 L134,248 L135,248 L135,243 L136,243 L136,240 L137,240 L137,237 L138,237 L138,235 L139,235 L139,233 L140,233 L140,231 L141,231 L141,230 L142,230 L142,228 L143,228 L143,227 L144,227 L144,225 L145,225 L145,224 L146,224 L146,223 L147,223 L147,222 L148,222 L148,221 L149,221 L149,220 L150,220 L150,219 L151,219 L151,218 L152,218 L152,217 L153,217 L153,216 L154,216 L154,215 L156,215 L156,214 L158,214 L158,213 L159,213 L159,212 L161,212 L161,211 L163,211 L163,210 L165,210 L165,209 L167,209 L167,208 L171,208 L171,207 L173,207 L173,206 L184,206 L184,205 L242,205 L242,204 L243,204 L243,151 L242,151 L242,150 L174,150 L174,152 L173,152 L173,155 L172,155 L172,158 L171,158 L171,160 L170,160 L170,162 L169,162 L169,164 L168,164 L168,165 L167,165 L167,167 L166,167 L166,168 L165,168 L165,169 L164,169 L164,170 L163,170 L163,171 L162,171 L162,172 L161,172 L161,173 L160,173 L160,174 L159,174 L159,175 L158,175 L158,176 L156,176 L156,177 L155,177 L155,178 L154,178 L154,179 L152,179 L152,180 L150,180 L150,181 L148,181 L148,182 L146,182 L146,183 L142,183 L142,184 L140,184 L140,185 L134,185 L134,186 L124,186 L124,185 L117,185 L117,184 L115,184 L115,183 L111,183 L111,182 L109,182 L109,181 L107,181 L107,180 L106,180 L106,179 L104,179 L104,178 L103,178 L103,177 L102,177 L102,176 L100,176 L100,175 L99,175 L99,174 L98,174 L98,173 L97,173 L97,172 L96,172 L96,171 L95,171 L95,170 L94,170 L94,169 L93,169 L93,168 L92,168 L92,166 L91,166 L91,165 L90,165 L90,163 L89,163 L89,162 L88,162 L88,159 L87,159 L87,157 L86,157 L86,155 L85,155 L85,151 L84,151 L84,146 L83,146 L83,133 L84,133 L84,129 L85,129 L85,125 L86,125 L86,122 L87,122 L87,120 L88,120 L88,118 L89,118 L89,116 L90,116 L90,114 L91,114 L91,113 L92,113 L92,112 L93,112 L93,110 L94,110 L94,109 L95,109 L95,108 L96,108 L96,107 L97,107 L97,106 L99,106 L99,105 L100,105 L100,104 L101,104 L101,103 L102,103 L102,102 L104,102 L104,101 L105,101 L105,100 L107,100 L107,99 L109,99 L109,98 L110,98 L110,97 L114,97 L114,96 L116,96 L116,95 L122,95 L122,94 L136,94 L136,95 L142,95 L142,96 L145,96 L145,97 L148,97 L148,98 L150,98 L150,99 L152,99 L152,100 L153,100 L153,101 L155,101 L155,102 L156,102 L156,103 L157,103 L157,104 L159,104 L159,105 L160,105 L160,106 L161,106 L161,107 L162,107 L162,108 L163,108 L163,109 L164,109 L164,110 L165,110 L165,112 L166,112 L166,113 L167,113 L167,115 L168,115 L168,116 L169,116 L169,118 L170,118 L170,120 L171,120 L171,122 L172,122 L172,124 L173,124 L173,127 L174,127 L174,129 L255,129 L255,130 L257,130 L257,131 L259,131 L259,132 L260,132 L260,133 L261,133 L261,135 L262,135 L262,138 L263,138 L263,204 L264,204 L264,205 L349,205 L349,204 L350,204 L350,132 L349,132 L349,131 L346,131 L346,130 L344,130 L344,129 L341,129 L341,128 L340,128 L340,127 L337,127 L337,126 L336,126 L336,125 L334,125 L334,124 L333,124 L333,123 L332,123 L332,122 L330,122 L330,121 L329,121 L329,120 L328,120 L328,119 L327,119 L327,118 L326,118 L326,117 L325,117 L325,116 L324,116 L324,115 L323,115 L323,113 L322,113 L322,112 L321,112 L321,110 L320,110 L320,109 L319,109 L319,107 L318,107 L318,104 L317,104 L317,102 L316,102 L316,98 L315,98 L315,95 L314,95 L314,77 L315,77 L315,74 L316,74 L316,70 L317,70 L317,68 L318,68 L318,66 L319,66 L319,64 L320,64 L320,62 L321,62 L321,61 L322,61 L322,59 L323,59 L323,58 L324,58 L324,57 L325,57 L325,56 L326,56 L326,55 L327,55 L327,54 L328,54 L328,53 L329,53 L329,52 L330,52 L330,51 L331,51 L331,50 L333,50 L333,49 L334,49 L334,48 L335,48 L335,47 L337,47 L337,46 L338,46 L338,45 L341,45 L341,44 L343,44 L343,43 L347,43 L347,42 L349,42 L349,41 L359,41 L359,40 L361,40 L361,41 L371,41 L371,42 L373,42 L373,43 L377,43 L377,44 L379,44 L379,45 L382,45 L382,46 L383,46 L383,47 L384,47 L384,48 L386,48 L386,49 L387,49 L387,50 L389,50 L389,51 L390,51 L390,52 L391,52 L391,53 L392,53 L392,54 L393,54 L393,55 L394,55 L394,56 L395,56 L395,57 L396,57 L396,58 L397,58 L397,60 L398,60 L398,61 L399,61 L399,63 L400,63 L400,65 L401,65 L401,67 L402,67 L402,69 L403,69 L403,71 L404,71 L404,76 L405,76 L405,80 L406,80 L406,94 L405,94 L405,98 L404,98 L404,102 L403,102 L403,104 L402,104 L402,106 L401,106 L401,108 L400,108 L400,110 L399,110 L399,112 L398,112 L398,113 L397,113 L397,115 L396,115 L396,116 L395,116 L395,117 L394,117 L394,118 L393,118 L393,119 L392,119 L392,120 L391,120 L391,121 L390,121 L390,122 L388,122 L388,123 L387,123 L387,124 L386,124 L386,125 L384,125 L384,126 L382,126 L382,127 L380,127 L380,128 L379,128 L379,129 L376,129 L376,130 L374,130 L374,131 L371,131 L371,132 L370,132 L370,204 L371,204 L371,205 L476,205 L476,204 L477,204 L477,91 L476,91 L476,90 L472,90 L472,89 L470,89 L470,88 L467,88 L467,87 L466,87 L466,86 L463,86 L463,85 L462,85 L462,84 L461,84 L461,83 L459,83 L459,82 L458,82 L458,81 L457,81 L457,80 L456,80 L456,79 L455,79 L455,78 L454,78 L454,77 L453,77 L453,76 L452,76 L452,75 L451,75 L451,74 L450,74 L450,72 L449,72 L449,71 L448,71 L448,70 L447,70 L447,67 L446,67 L446,66 L445,66 L445,63 L444,63 L444,61 L443,61 L443,56 L442,56 L442,49 L441,49 L441,40 L442,40 L442,35 L443,35 L443,31 L444,31 L444,29 L445,29 L445,26 L446,26 L446,25 L447,25 L447,23 L448,23 L448,21 L449,21 L449,19 L450,19 L450,18 L451,18 L451,17 L452,17 L452,16 L453,16 L453,15 L454,15 L454,14 L455,14 L455,13 L456,13 L456,12 L457,12 L457,11 L458,11 L458,10 L459,10 L459,9 L461,9 L461,8 L462,8 L462,7 L464,7 L464,6 L465,6 L465,5 L467,5 L467,4 L470,4 L470,3 L472,3 L472,2 L476,2 L476,1 L480,1 L480,0 L495,0 L495,1 L498,1 L498,2 L502,2 L502,3 L505,3 L505,4 L507,4 L507,5 L509,5 L509,6 L511,6 L511,7 L512,7 L512,8 L514,8 L514,9 L515,9 L515,10 L517,10 L517,11 L518,11 L518,12 L519,12 L519,13 L520,13 L520,14 L521,14 L521,15 L522,15 L522,16 L523,16 L523,17 L524,17 L524,19 L525,19 L525,20 L526,20 L526,22 L527,22 L527,24 L528,24 L528,26 L529,26 L529,28 L530,28 L530,30 L531,30 L531,34 L532,34 L532,37 L533,37 L533,56 L532,56 L532,58 L531,58 L531,62 L530,62 L530,64 L529,64 L529,67 L528,67 L528,69 L527,69 L527,70 L526,70 L526,72 L525,72 L525,73 L524,73 L524,75 L523,75 L523,76 L522,76 L522,77 L521,77 L521,78 L520,78 L520,79 L519,79 L519,80 L518,80 L518,81 L517,81 L517,82 L515,82 L515,83 L514,83 L514,84 L512,84 L512,85 L511,85 L511,86 L509,86 L509,87 L507,87 L507,88 L505,88 L505,89 L502,89 L502,90 L499,90 L499,91 L498,91 L498,92 L497,92 L497,204 L498,204 L498,205 L584,205 L584,79 L585,79 L585,74 L586,74 L586,73 L587,73 L587,72 L588,72 L588,71 L589,71 L589,70 L592,70 L592,69 L827,69 L827,68 L828,68 L828,66 L829,66 L829,62 L830,62 L830,60 L831,60 L831,58 L832,58 L832,56 L833,56 L833,55 L834,55 L834,53 L835,53 L835,52 L836,52 L836,50 L837,50 L837,49 L838,49 L838,48 L839,48 L839,47 L840,47 L840,46 L841,46 L841,45 L842,45 L842,44 L843,44 L843,43 L845,43 L845,42 L846,42 L846,41 L847,41 L847,40 L849,40 L849,39 L851,39 L851,38 L853,38 L853,37 L855,37 L855,36 L859,36 L859,35 L862,35 L862,34 L870,34 L870,33 L875,33 L875,34 L884,34 L884,35 L886,35 L886,36 L890,36 L890,37 L892,37 L892,38 L894,38 L894,39 L896,39 L896,40 L897,40 L897,41 L899,41 L899,42 L900,42 L900,43 L902,43 L902,44 L903,44 L903,45 L904,45 L904,46 L905,46 L905,47 L906,47 L906,48 L907,48 L907,49 L908,49 L908,51 L909,51 L909,52 L910,52 L910,54 L911,54 L911,55 L912,55 L912,57 L913,57 L913,59 L914,59 L914,61 L915,61 L915,64 L916,64 L916,66 L917,66 L917,71 L918,71 L918,78 L919,78 L919,80 L918,80 L918,88 L917,88 L917,93 L916,93 L916,95 L915,95 L915,98 L914,98 L914,99 L913,99 L913,101 L912,101 L912,103 L911,103 L911,104 L910,104 L910,106 L909,106 L909,107 L908,107 L908,109 L907,109 L907,110 L906,110 L906,111 L905,111 L905,112 L904,112 L904,113 L902,113 L902,114 L901,114 L901,115 L900,115 L900,116 L899,116 L899,117 L897,117 L897,118 L895,118 L895,119 L894,119 L894,120 L892,120 L892,121 L890,121 L890,122 L886,122 L886,123 L884,123 L884,124 L877,124 L877,125 L864,125 L864,124 L860,124 L860,123 L858,123 L858,122 L854,122 L854,121 L853,121 L853,120 L850,120 L850,119 L849,119 L849,118 L847,118 L847,117 L846,117 L846,116 L845,116 L845,115 L843,115 L843,114 L842,114 L842,113 L841,113 L841,112 L840,112 L840,111 L838,111 L838,109 L837,109 L837,108 L836,108 L836,106 L835,106 L835,105 L834,105 L834,104 L833,104 L833,102 L832,102 L832,100 L831,100 L831,98 L830,98 L830,96 L829,96 L829,92 L828,92 L828,90 L827,90 L827,89 L606,89 L606,90 L605,90 L605,205 L665,205 L665,206 L673,206 L673,207 L676,207 L676,208 L680,208 L680,209 L682,209 L682,210 L685,210 L685,211 L686,211 L686,212 L688,212 L688,213 L690,213 L690,214 L691,214 L691,215 L692,215 L692,216 L693,216 L693,217 L695,217 L695,218 L696,218 L696,219 L697,219 L697,220 L698,220 L698,221 L699,221 L699,222 L700,222 L700,223 L701,223 L701,224 L702,224 L702,225 L703,225 L703,227 L704,227 L704,228 L705,228 L705,230 L706,230 L706,231 L707,231 L707,233 L708,233 L708,235 L709,235 L709,237 L710,237 L710,240 L711,240 L711,243 L712,243 L712,248 L713,248 L713,256 L714,256 L714,314 L768,314 L768,313 L769,313 L769,246 L768,246 L768,245 L766,245 L766,244 L762,244 L762,243 L761,243 L761,242 L758,242 L758,241 L757,241 L757,240 L755,240 L755,239 L753,239 L753,238 L752,238 L752,237 L750,237 L750,236 L749,236 L749,235 L748,235 L748,234 L747,234 L747,233 L746,233 L746,232 L745,232 L745,231 L744,231 L744,230 L743,230 L743,229 L742,229 L742,227 L741,227 L741,226 L740,226 L740,225 L739,225 L739,223 L738,223 L738,221 L737,221 L737,218 L736,218 L736,216 L735,216 L735,213 L734,213 L734,207 L733,207 L733,193 L734,193 L734,187 L735,187 L735,185 L736,185 L736,182 L737,182 L737,180 L738,180 L738,178 L739,178 L739,176 L740,176 L740,175 L741,175 L741,174 L742,174 L742,173 L743,173 L743,171 L744,171 L744,170 L745,170 L745,169 L746,169 L746,168 L747,168 L747,167 L748,167 L748,166 L749,166 L749,165 L751,165 L751,164 L752,164 L752,163 L753,163 L753,162 L755,162 L755,161 L756,161 L756,160 L758,160 L758,159 L760,159 L760,158 L764,158 L764,157 L766,157 L766,156 L771,156 L771,155 L786,155 L786,156 L792,156 L792,157 L794,157 L794,158 L798,158 L798,159 L800,159 L800,160 L801,160 L801,161 L803,161 L803,162 L804,162 L804,163 L806,163 L806,164 L807,164 L807,165 L809,165 L809,166 L810,166 L810,167 L811,167 L811,168 L812,168 L812,169 L813,169 L813,170 L814,170 L814,171 L815,171 L815,173 L816,173 L816,174 L817,174 L817,176 L818,176 L818,178 L819,178 L819,179 L820,179 L820,182 L821,182 L821,183 L822,183 L822,186 L823,186 L823,190 L824,190 L824,195 L825,195 L825,206 L824,206 L824,212 L823,212 L823,215 L822,215 L822,218 L821,218 L821,220 L820,220 L820,222 L819,222 L819,224 L818,224 L818,226 L817,226 L817,227 L816,227 L816,228 L815,228 L815,230 L814,230 L814,231 L813,231 L813,232 L812,232 L812,233 L811,233 L811,234 L810,234 L810,235 L808,235 L808,236 L807,236 L807,237 L806,237 L806,238 L804,238 L804,239 L803,239 L803,240 L801,240 L801,241 L799,241 L799,242 L797,242 L797,243 L795,243 L795,244 L792,244 L792,245 L790,245 L790,246 L789,246 L789,327 L788,327 L788,329 L787,329 L787,331 L786,331 L786,332 L784,332 L784,333 L783,333 L783,334 L715,334 L715,335 L714,335 L714,421 L787,421 L787,419 L788,419 L788,416 L789,416 L789,414 L790,414 L790,412 L791,412 L791,409 L792,409 L792,408 L793,408 L793,406 L794,406 L794,405 L795,405 L795,403 L796,403 L796,402 L797,402 L797,401 L798,401 L798,400 L799,400 L799,399 L800,399 L800,398 L801,398 L801,397 L802,397 L802,396 L803,396 L803,395 L804,395 L804,394 L805,394 L805,393 L807,393 L807,392 L808,392 L808,391 L811,391 L811,390 L812,390 L812,389 L815,389 L815,388 L817,388 L817,387 L821,387 L821,386 L826,386 L826,385 L838,385 L838,386 L843,386 L843,387 L847,387 L847,388 L849,388 L849,389 L852,389 L852,390 L853,390 L853,391 L856,391 L856,392 L857,392 L857,393 L859,393 L859,394 L860,394 L860,395 L861,395 L861,396 L862,396 L862,397 L863,397 L863,398 L865,398 L865,400 L866,400 L866,401 L867,401 L867,402 L868,402 L868,403 L869,403 L869,404 L870,404 L870,406 L871,406 L871,407 L872,407 L872,409 L873,409 L873,411 L874,411 L874,414 L875,414 L875,416 L876,416 L876,419 L877,419 L877,425 L878,425 L878,438 L877,438 L877,443 L876,443 L876,447 L875,447 L875,449 L874,449 L874,451 L873,451 L873,453 L872,453 L872,455 L871,455 L871,456 L870,456 L870,458 L869,458 L869,459 L868,459 L868,460 L867,460 L867,462 L866,462 L866,463 L865,463 L865,464 L864,464 L864,465 L863,465 L863,466 L861,466 L861,467 L860,467 L860,468 L859,468 L859,469 L858,469 L858,470 L856,470 L856,471 L854,471 L854,472 L852,472 L852,473 L850,473 L850,474 L848,474 L848,475 L844,475 L844,476 L842,476 L842,477 L823,477 L823,476 L821,476 L821,475 L817,475 L817,474 L815,474 L815,473 L812,473 L812,472 L810,472 L810,471 L808,471 L808,470 L807,470 L807,469 L806,469 L806,468 L804,468 L804,467 L803,467 L803,466 L802,466 L802,465 L801,465 L801,464 L799,464 L799,463 L798,463 L798,462 L797,462 L797,460 L796,460 L796,459 L795,459 L795,458 L794,458 L794,456 L793,456 L793,455 L792,455 L792,453 L791,453 L791,451 L790,451 L790,449 L789,449 L789,446 L788,446 L788,442 L787,442 L787,441 L714,441 L714,549 L827,549 L827,548 L828,548 L828,546 L829,546 L829,542 L830,542 L830,540 L831,540 L831,538 L832,538 L832,536 L833,536 L833,534 L834,534 L834,533 L835,533 L835,532 L836,532 L836,530 L837,530 L837,529 L838,529 L838,527 L840,527 L840,526 L841,526 L841,525 L842,525 L842,524 L843,524 L843,523 L844,523 L844,522 L845,522 L845,521 L846,521 L846,520 L848,520 L848,519 L849,519 L849,518 L852,518 L852,517 L854,517 L854,516 L856,516 L856,515 L860,515 L860,514 L863,514 L863,513 L883,513 L883,514 L885,514 L885,515 L889,515 L889,516 L891,516 L891,517 L893,517 L893,518 L895,518 L895,519 L897,519 L897,520 L898,520 L898,521 L899,521 L899,522 L901,522 L901,523 L902,523 L902,524 L903,524 L903,525 L904,525 L904,526 L905,526 L905,527 L906,527 L906,528 L907,528 L907,529 L908,529 L908,530 L909,530 L909,531 L910,531 L910,533 L911,533 L911,534 L912,534 L912,536 L913,536 L913,538 L914,538 L914,540 L915,540 L915,543 L916,543 L916,545 L917,545 L917,550 L918,550 L918,557 L919,557 L919,563 L918,563 L918,568 L917,568 L917,573 L916,573 L916,575 L915,575 L915,578 L914,578 L914,579 L913,579 L913,581 L912,581 L912,583 L911,583 L911,585 L910,585 L910,586 L909,586 L909,587 L908,587 L908,588 L907,588 L907,589 L906,589 L906,591 L905,591 L905,592 L904,592 L904,593 L902,593 L902,594 L901,594 L901,595 L900,595 L900,596 L899,596 L899,597 L897,597 L897,598 L896,598 L896,599 L894,599 L894,600 L892,600 L892,601 L889,601 L889,602 L886,602 L886,603 L883,603 L883,604 L874,604 L874,605 L869,605 L869,604 L861,604 L861,603 L858,603 L858,602 L856,602 L856,601 L853,601 L853,600 L851,600 L851,599 L849,599 L849,598 L848,598 L848,597 L846,597 L846,596 L845,596 L845,595 L843,595 L843,594 L842,594 L842,593 L841,593 L841,592 L840,592 L840,591 L839,591 L839,590 L838,590 L838,589 L837,589 L837,588 L836,588 L836,586 L835,586 L835,585 L834,585 L834,583 L833,583 L833,582 L832,582 L832,580 L831,580 L831,578 L830,578 L830,576 L829,576 L829,572 L828,572 L828,570 L827,570 L827,569 L714,569 L714,656 L843,656 L843,657 L844,657 L844,658 L846,658 L846,659 L847,659 L847,660 L848,660 L848,662 L849,662 L849,898 L850,898 L850,899 L851,899 L851,900 L855,900 L855,901 L857,901 L857,902 L860,902 L860,903 L861,903 L861,904 L863,904 L863,905 L865,905 L865,906 L866,906 L866,907 L867,907 L867,908 L869,908 L869,909 L870,909 L870,910 L871,910 L871,911 L872,911 L872,912 L873,912 L873,913 L874,913 L874,914 L875,914 L875,916 L876,916 L876,917 L877,917 L877,919 L878,919 L878,920 L879,920 L879,922 L880,922 L880,923 L881,923 L881,926 L882,926 L882,928 L883,928 L883,931 L884,931 L884,935 L885,935 L885,953 L884,953 L884,957 L883,957 L883,960 L882,960 L882,962 L881,962 L881,965 L880,965 L880,966 L879,966 L879,968 L878,968 L878,969 L877,969 L877,971 L876,971 L876,972 L875,972 L875,973 L874,973 L874,975 L873,975 L873,976 L872,976 L872,977 L871,977 L871,978 L870,978 L870,979 L868,979 L868,980 L867,980 L867,981 L865,981 L865,982 L864,982 L864,983 L862,983 L862,984 L861,984 L861,985 L859,985 L859,986 L856,986 L856,987 L854,987 L854,988 L850,988 L850,989 L846,989 L846,990 L833,990 L833,989 L828,989 L828,988 L824,988 L824,987 L822,987 L822,986 L819,986 L819,985 L817,985 L817,984 L816,984 L816,983 L814,983 L814,982 L813,982 L813,981 L811,981 L811,980 L810,980 L810,979 L809,979 L809,978 L808,978 L808,977 L807,977 L807,976 L806,976 L806,975 L805,975 L805,974 L804,974 L804,973 L803,973 L803,972 L802,972 L802,970 L801,970 L801,969 L800,969 L800,967 L799,967 L799,965 L798,965 L798,963 L797,963 L797,961 L796,961 L796,959 L795,959 L795,954 L794,954 L794,950 L793,950 L793,938 L794,938 L794,934 L795,934 L795,929 L796,929 L796,927 L797,927 L797,925 L798,925 L798,923 L799,923 L799,921 L800,921 L800,919 L801,919 L801,918 L802,918 L802,916 L803,916 L803,915 L804,915 L804,914 L805,914 L805,913 L806,913 L806,912 L807,912 L807,911 L808,911 L808,909 L810,909 L810,908 L811,908 L811,907 L813,907 L813,906 L814,906 L814,905 L815,905 L815,904 L818,904 L818,903 L819,903 L819,902 L822,902 L822,901 L824,901 L824,900 L828,900 L828,899 L829,899 L829,676 L714,676 L714,677 L713,677 L713,742 L712,742 L712,747 L711,747 L711,750 L710,750 L710,752 L709,752 L709,755 L708,755 L708,757 L707,757 L707,759 L706,759 L706,760 L705,760 L705,762 L704,762 L704,763 L703,763 L703,765 L702,765 L702,766 L701,766 L701,767 L700,767 L700,768 L699,768 L699,769 L698,769 L698,770 L697,770 L697,771 L696,771 L696,772 L695,772 L695,773 L694,773 L694,774 L693,774 L693,775 L691,775 L691,776 L690,776 L690,777 L688,777 L688,778 L686,778 L686,779 L685,779 L685,780 L682,780 L682,781 L680,781 L680,782 L677,782 L677,783 L674,783 L674,784 L667,784 L667,785 L605,785 L605,840 L673,840 L673,838 L674,838 L674,835 L675,835 L675,832 L676,832 L676,830 L677,830 L677,829 L678,829 L678,827 L679,827 L679,825 L680,825 L680,824 L681,824 L681,822 L682,822 L682,821 L683,821 L683,820 L684,820 L684,819 L685,819 L685,818 L686,818 L686,817 L687,817 L687,816 L688,816 L688,815 L689,815 L689,814 L690,814 L690,813 L692,813 L692,812 L693,812 L693,811 L695,811 L695,810 L697,810 L697,809 L700,809 L700,808 L701,808 L701,807 L705,807 L705,806 L707,806 L707,805 L712,805 L712,804 L724,804 L724,805 L730,805 L730,806 L732,806 L732,807 L736,807 L736,808 L738,808 L738,809 L740,809 L740,810 L742,810 L742,811 L743,811 L743,812 L745,812 L745,813 L746,813 L746,814 L748,814 L748,816 L750,816 L750,817 L751,817 L751,818 L752,818 L752,820 L753,820 L753,821 L754,821 L754,822 L755,822 L755,823 L756,823 L756,825 L757,825 L757,827 L758,827 L758,828 L759,828 L759,831 L760,831 L760,832 L761,832 L761,835 L762,835 L762,838 L763,838 L763,844 L764,844 L764,857 L763,857 L763,862 L762,862 L762,865 L761,865 L761,868 L760,868 L760,870 L759,870 L759,872 L758,872 L758,874 L757,874 L757,875 L756,875 L756,877 L755,877 L755,878 L754,878 L754,880 L753,880 L753,881 L752,881 L752,882 L751,882 L751,883 L750,883 L750,884 L749,884 L749,885 L748,885 L748,886 L746,886 L746,887 L745,887 L745,888 L744,888 L744,889 L742,889 L742,890 L740,890 L740,891 L738,891 L738,892 L736,892 L736,893 L734,893 L734,894 L732,894 L732,895 L726,895 L726,896 L711,896 L711,895 L705,895 L705,894 L703,894 L703,893 L700,893 L700,892 L698,892 L698,891 L696,891 L696,890 L694,890 L694,889 L693,889 L693,888 L691,888 L691,887 L690,887 L690,886 L688,886 L688,885 L687,885 L687,884 L686,884 L686,883 L685,883 L685,882 L684,882 L684,881 L683,881 L683,879 L682,879 L682,878 L681,878 L681,877 L680,877 L680,875 L679,875 L679,874 L678,874 L678,872 L677,872 L677,870 L676,870 L676,868 L675,868 L675,865 L674,865 L674,862 L673,862 L673,861 L595,861 L595,860 L591,860 L591,859 L589,859 L589,858 L588,858 L588,857 L587,857 L587,856 L586,856 L586,855 L585,855 L585,851 L584,851 L584,786 L583,786 L583,785 L498,785 L498,786 L497,786 L497,857 L498,857 L498,858 L499,858 L499,859 L503,859 L503,860 L505,860 L505,861 L507,861 L507,862 L509,862 L509,863 L511,863 L511,864 L512,864 L512,865 L514,865 L514,866 L515,866 L515,867 L517,867 L517,868 L518,868 L518,869 L519,869 L519,871 L520,871 L520,872 L521,872 L521,873 L522,873 L522,874 L523,874 L523,875 L524,875 L524,876 L525,876 L525,878 L526,878 L526,879 L527,879 L527,881 L528,881 L528,883 L529,883 L529,885 L530,885 L530,887 L531,887 L531,891 L532,891 L532,894 L533,894 L533,913 L532,913 L532,916 L531,916 L531,920 L530,920 L530,922 L529,922 L529,924 L528,924 L528,926 L527,926 L527,928 L526,928 L526,929 L525,929 L525,931 L524,931 L524,932 L523,932 L523,933 L522,933 L522,934 L521,934 L521,935 L520,935 L520,936 L519,936 L519,937 L518,937 L518,938 L517,938 L517,939 L516,939 L516,940 L514,940 L514,941 L513,941 L513,942 L512,942 L512,943 L510,943 L510,944 L509,944 L509,945 L506,945 L506,946 L504,946 L504,947 L500,947 L500,948 L497,948 L497,949 L477,949 L477,948 L474,948 L474,947 L470,947 L470,946 L468,946 L468,945 L466,945 L466,944 L464,944 L464,943 L463,943 L463,942 L461,942 L461,941 L460,941 L460,940 L459,940 L459,939 L458,939 L458,938 L456,938 L456,937 L455,937 L455,936 L454,936 L454,935 L453,935 L453,934 L452,934 L452,933 L451,933 L451,932 L450,932 L450,930 L449,930 L449,928 L448,928 L448,927 L447,927 L447,925 L446,925 L446,923 L445,923 L445,921 L444,921 L444,918 L443,918 L443,915 L442,915 L442,909 L441,909 L441,897 L442,897 L442,892 L443,892 L443,888 L444,888 L444,886 L445,886 L445,884 L446,884 L446,882 L447,882 L447,880 L448,880 L448,879 L449,879 L449,877 L450,877 L450,876 L451,876 L451,875 L452,875 L452,873 L453,873 L453,872 L454,872 L454,871 L455,871 L455,870 L456,870 L456,869 L457,869 L457,868 L458,868 L458,867 L459,867 L459,866 L461,866 L461,865 L462,865 L462,864 L464,864 L464,863 L466,863 L466,862 L467,862 L467,861 L470,861 L470,860 L472,860 L472,859 L476,859 L476,858 L477,858 L477,786 L476,786 L476,785 L371,785 L371,786 L370,786 L370,899 L372,899 L372,900 L376,900 L376,901 L378,901 L378,902 L380,902 L380,903 L382,903 L382,904 L384,904 L384,905 L385,905 L385,906 L387,906 L387,907 L388,907 L388,908 L389,908 L389,909 L391,909 L391,911 L393,911 L393,913 L394,913 L394,914 L395,914 L395,915 L396,915 L396,916 L397,916 L397,918 L398,918 L398,919 L399,919 L399,921 L400,921 L400,923 L401,923 L401,924 L402,924 L402,927 L403,927 L403,929 L404,929 L404,934 L405,934 L405,938 L406,938 L406,951 L405,951 L405,955 L404,955 L404,959 L403,959 L403,961 L402,961 L402,964 L401,964 L401,965 L400,965 L400,967 L399,967 L399,969 L398,969 L398,970 L397,970 L397,971 L396,971 L396,973 L395,973 L395,974 L394,974 L394,975 L393,975 L393,976 L392,976 L392,977 L391,977 L391,978 L390,978 L390,979 L388,979 L388,980 L387,980 L387,981 L386,981 L386,982 L385,982 L385,983 L383,983 L383,984 L381,984 L381,985 L379,985 L379,986 L377,986 L377,987 L374,987 L374,988 L370,988 L370,989 L366,989 L366,990 L353,990 L353,989 L349,989 L349,988 L345,988 L345,987 L342,987 L342,986 L340,986 L340,985 L338,985 L338,984 L336,984 L336,983 L335,983 L335,982 L334,982 L334,981 L332,981 L332,980 L331,980 L331,979 L329,979 L329,978 L328,978 L328,977 L327,977 L327,976 L326,976 L326,975 L325,975 L325,974 L324,974 L324,973 L323,973 L323,971 L322,971 L322,970 L321,970 L321,968 L320,968 L320,966 L319,966 L319,964 L318,964 L318,962 L317,962 L317,960 L316,960 L316,956 L315,956 L315,953 L314,953 L314,934 L315,934 L315,932 L316,932 L316,928 L317,928 L317,926 L318,926 L318,924 L319,924 L319,922 L320,922 L320,920 L321,920 L321,918 L322,918 L322,917 L323,917 L323,916 L324,916 L324,915 L325,915 L325,913 L326,913 L326,912 L327,912 L327,911 L328,911 L328,910 L329,910 L329,909 L330,909 L330,908 L332,908 L332,907 L333,907 L333,906 L335,906 L335,905 L336,905 L336,904 L338,904 L338,903 L340,903 L340,902 L342,902 L342,901 L344,901 L344,900 L348,900 L348,899 L349,899 L349,898 L350,898 L350,786 L349,786 L349,785 L264,785 L264,786 L263,786 L263,912 L262,912 L262,916 L261,916 L261,917 L260,917 L260,918 L259,918 L259,919 L258,919 L258,920 L254,920 L254,921 L20,921 L20,922 L19,922 L19,924 L18,924 L18,928 L17,928 L17,930 L16,930 L16,932 L15,932 L15,934 L14,934 L14,936 L13,936 L13,937 L12,937 L12,938 L11,938 L11,940 L10,940 L10,941 L9,941 L9,942 L8,942 L8,943 L7,943 L7,944 L6,944 L6,945 L5,945 L5,946 L4,946 L4,947 L2,947 L2,948 L1,948 L1,949 L-1,949 L-1,950 L-2,950 L-2,951 L-4,951 L-4,952 L-6,952 L-6,953 L-8,953 L-8,954 L-12,954 L-12,955 L-14,955 L-14,956 L-22,956 L-22,957 L-32,957 L-32,956 L-38,956 L-38,955 L-40,955 L-40,954 L-44,954 L-44,953 L-46,953 L-46,952 L-48,952 L-48,951 L-49,951 L-49,950 L-51,950 L-51,949 L-52,949 L-52,948 L-53,948 L-53,947 L-55,947 L-55,946 L-56,946 L-56,945 L-57,945 L-57,944 L-58,944 L-58,943 L-59,943 L-59,942 L-60,942 L-60,941 L-61,941 L-61,940 L-62,940 L-62,938 L-63,938 L-63,937 L-64,937 L-64,935 L-65,935 L-65,934 L-66,934 L-66,931 L-67,931 L-67,930 L-68,930 L-68,927 L-69,927 L-69,925 L-70,925 L-70,920 L-71,920 L-71,902 L-70,902 L-70,898 L-69,898 L-69,895 L-68,895 L-68,892 L-67,892 L-67,890 L-66,890 L-66,888 L-65,888 L-65,887 L-64,887 L-64,885 L-63,885 L-63,884 L-62,884 L-62,882 L-61,882 L-61,881 L-60,881 L-60,880 L-59,880 L-59,879 L-58,879 L-58,878 L-57,878 L-57,877 L-56,877 L-56,876 L-55,876 L-55,875 L-54,875 L-54,874 L-52,874 L-52,873 L-51,873 L-51,872 L-49,872 L-49,871 L-48,871 L-48,870 L-46,870 L-46,869 L-44,869 L-44,868 L-41,868 L-41,867 L-39,867 L-39,866 L-34,866 L-34,865 L-28,865 L-28,864 L-23,864 L-23,865 L-16,865 L-16,866 L-11,866 L-11,867 L-9,867 L-9,868 L-6,868 L-6,869 L-5,869 L-5,870 L-2,870 L-2,871 L-1,871 L-1,872 L0,872 L0,873 L2,873 L2,874 L3,874 L3,875 L4,875 L4,876 L5,876 L5,877 L7,877 L7,879 L8,879 L8,880 L9,880 L9,881 L10,881 L10,882 L11,882 L11,884 L12,884 L12,885 L13,885 L13,886 L14,886 L14,888 L15,888 L15,889 L16,889 L16,892 L17,892 L17,894 L18,894 L18,897 L19,897 L19,900 L21,900 L21,901 L241,901 L241,900 L243,900 L243,786 L242,786 L242,785 L180,785 L180,784 L173,784 L173,783 L171,783 L171,782 L167,782 L167,781 L165,781 L165,780 L162,780 L162,779 L160,779 L160,778 L158,778 L158,777 L157,777 L157,776 L156,776 L156,775 L154,775 L154,774 L153,774 L153,773 L152,773 L152,772 L151,772 L151,771 L149,771 L149,770 L148,770 L148,769 L147,769 L147,767 L146,767 L146,766 L145,766 L145,765 L144,765 L144,764 L143,764 L143,762 L142,762 L142,761 L141,761 L141,759 L140,759 L140,757 L139,757 L139,755 L138,755 L138,753 L137,753 L137,750 L136,750 L136,747 L135,747 L135,741 L134,741 L134,677 L133,677 L133,676 L79,676 L79,677 L78,677 L78,743 L79,743 L79,744 L80,744 L80,745 L82,745 L82,746 L86,746 L86,747 L88,747 L88,748 L90,748 L90,749 L92,749 L92,750 L93,750 L93,751 L95,751 L95,752 L96,752 L96,753 L97,753 L97,754 L99,754 L99,755 L100,755 L100,756 L101,756 L101,758 L102,758 L102,759 L103,759 L103,760 L104,760 L104,761 L105,761 L105,762 L106,762 L106,764 L107,764 L107,765 L108,765 L108,767 L109,767 L109,769 L110,769 L110,771 L111,771 L111,773 L112,773 L112,777 L113,777 L113,781 L114,781 L114,789 L115,789 L115,790 L114,790 L114,798 L113,798 L113,803 L112,803 L112,805 L111,805 L111,807 L110,807 L110,810 L109,810 L109,811 L108,811 L108,814 L107,814 L107,815 L106,815 L106,816 L105,816 L105,817 L104,817 L104,819 L103,819 L103,820 L102,820 L102,821 L101,821 L101,822 L100,822 L100,823 L99,823 L99,824 L98,824 L98,825 L96,825 L96,826 L95,826 L95,827 L94,827 L94,828 L92,828 L92,829 L91,829 L91,830 L89,830 L89,831 L87,831 L87,832 L83,832 L83,833 L81,833 L81,834 L75,834 L75,835 L61,835 L61,834 L56,834 L56,833 L53,833 L53,832 L50,832 L50,831 L48,831 L48,830 L46,830 L46,829 L44,829 L44,828 L43,828 L43,827 L41,827 L41,826 L40,826 L40,825 L39,825 L39,824 L38,824 L38,823 L36,823 L36,822 L35,822 L35,821 L34,821 L34,820 L33,820 L33,818 L32,818 L32,817 L31,817 L31,816 L30,816 L30,814 L29,814 L29,812 L28,812 L28,811 L27,811 L27,808 L26,808 L26,806 L25,806 L25,804 L24,804 L24,800 L23,800 L23,795 L22,795 L22,784 L23,784 L23,779 L24,779 L24,775 L25,775 L25,772 L26,772 L26,770 L27,770 L27,768 L28,768 L28,766 L29,766 L29,764 L30,764 L30,763 L31,763 L31,762 L32,762 L32,760 L33,760 L33,759 L34,759 L34,758 L35,758 L35,757 L36,757 L36,756 L37,756 L37,755 L38,755 L38,754 L39,754 L39,753 L41,753 L41,752 L42,752 L42,751 L43,751 L43,750 L45,750 L45,749 L47,749 L47,748 L49,748 L49,747 L51,747 L51,746 L54,746 L54,745 L57,745 L57,744 L58,744 L58,663 L59,663 L59,661 L60,661 L60,659 L61,659 L61,658 L63,658 L63,657 L64,657 L64,656 L68,656 L68,655 L133,655 L133,654 L134,654 L134,569 L132,569 L132,568 L62,568 L62,569 L60,569 L60,571 L59,571 L59,574 L58,574 L58,577 L57,577 L57,578 L56,578 L56,581 L55,581 L55,582 L54,582 L54,584 L53,584 L53,585 L52,585 L52,587 L51,587 L51,588 L50,588 L50,589 L49,589 L49,590 L48,590 L48,591 L47,591 L47,592 L46,592 L46,593 L45,593 L45,594 L43,594 L43,595 L42,595 L42,596 L41,596 L41,597 L39,597 L39,598 L38,598 L38,599 L35,599 L35,600 L34,600 L34,601 L31,601 L31,602 L28,602 L28,603 L25,603 L25,604 L17,604 L17,605 L13,605 L13,604 L4,604 L4,603 L1,603 L1,602 L-2,602 L-2,601 L-5,601 L-5,600 L-6,600 L-6,599 L-8,599 L-8,598 L-9,598 L-9,597 L-11,597 L-11,596 L-12,596 L-12,595 L-14,595 L-14,594 L-15,594 L-15,593 L-16,593 L-16,592 L-17,592 L-17,591 L-18,591 L-18,590 L-19,590 L-19,589 L-20,589 L-20,588 L-21,588 L-21,587 L-22,587 L-22,586 L-23,586 L-23,584 L-24,584 L-24,582 L-25,582 L-25,580 L-26,580 L-26,578 L-27,578 L-27,576 L-28,576 L-28,573 L-29,573 L-29,570 L-30,570 L-30,564 L-31,564 L-31,553 L-30,553 L-30,546 L-29,546 L-29,544 L-28,544 L-28,541 L-27,541 L-27,539 L-26,539 L-26,537 L-25,537 L-25,535 L-24,535 L-24,533 L-23,533 L-23,532 L-22,532 L-22,531 L-21,531 L-21,529 L-20,529 L-20,528 L-19,528 L-19,527 L-18,527 L-18,526 L-17,526 L-17,525 L-16,525 L-16,524 L-15,524 L-15,523 L-13,523 L-13,522 L-12,522 L-12,521 L-11,521 L-11,520 L-9,520 L-9,519 L-8,519 L-8,518 L-6,518 L-6,517 L-4,517 L-4,516 L-1,516 L-1,515 L2,515 L2,514 L5,514 L5,513 L24,513 L24,514 L28,514 L28,515 L32,515 L32,516 L34,516 L34,517 L36,517 L36,518 L38,518 L38,519 L40,519 L40,520 L41,520 L41,521 L42,521 L42,522 L44,522 L44,523 L45,523 L45,524 L46,524 L46,525 L47,525 L47,526 L48,526 L48,527 L49,527 L49,528 L50,528 L50,529 L51,529 L51,531 L52,531 L52,532 L53,532 L53,533 L54,533 L54,535 L55,535 L55,537 L56,537 L56,539 L57,539 L57,540 L58,540 L58,543 L59,543 L59,546 L60,546 L60,548 L133,548 L133,546 L134,546 L134,442 L133,442 L133,441 L20,441 L20,442 L19,442 L19,445 L18,445 L18,448 L17,448 L17,450 L16,450 L16,452 L15,452 L15,454 L14,454 L14,456 L13,456 L13,457 L12,457 L12,459 L11,459 L11,460 L10,460 L10,461 L9,461 L9,462 L8,462 L8,463 L7,463 L7,464 L6,464 L6,465 L5,465 L5,466 L4,466 L4,467 L3,467 L3,468 L1,468 L1,469 L0,469 L0,470 L-2,470 L-2,471 L-3,471 L-3,472 L-6,472 L-6,473 L-8,473 L-8,474 L-10,474 L-10,475 L-14,475 L-14,476 L-17,476 L-17,477 L-35,477 L-35,476 L-38,476 L-38,475 L-42,475 L-42,474 L-44,474 L-44,473 L-46,473 L-46,472 L-48,472 L-48,471 L-50,471 L-50,470 L-51,470 L-51,469 L-52,469 L-52,468 L-54,468 L-54,467 L-55,467 L-55,466 L-56,466 L-56,465 L-57,465 L-57,464 L-58,464 L-58,463 L-59,463 L-59,462 L-60,462 L-60,461 L-61,461 L-61,460 L-62,460 L-62,459 L-63,459 L-63,457 L-64,457 L-64,455 L-65,455 L-65,454 L-66,454 L-66,452 L-67,452 L-67,450 L-68,450 L-68,447 L-69,447 L-69,445 L-70,445 L-70,440 L-71,440 L-71,422 L-70,422 L-70,418 L-69,418 L-69,416 L-68,416 L-68,413 L-67,413 L-67,411 L-66,411 L-66,409 L-65,409 L-65,407 L-64,407 L-64,405 L-63,405 L-63,404 L-62,404 L-62,403 L-61,403 L-61,402 L-60,402 L-60,400 L-59,400 L-59,399 L-58,399 L-58,398 L-57,398 L-57,397 L-55,397 L-55,396 L-54,396 L-54,395 L-53,395 L-53,394 L-52,394 L-52,393 L-50,393 L-50,392 L-49,392 L-49,391 L-47,391 L-47,390 L-45,390 L-45,389 L-42,389 L-42,388 L-40,388 L-40,387 L-36,387 L-36,386 L-31,386 L-31,385 L-19,385 L-19,386 L-14,386 L-14,387 L-10,387 L-10,388 L-8,388 L-8,389 L-5,389 L-5,390 L-4,390 L-4,391 L-2,391 L-2,392 L-1,392 L-1,393 L1,393 L1,394 L2,394 L2,395 L3,395 L3,396 L5,396 L5,397 L6,397 L6,398 L7,398 L7,399 L8,399 L8,400 L9,400 L9,401 L10,401 L10,402 L11,402 L11,404 L12,404 L12,405 L13,405 L13,407 L14,407 L14,408 L15,408 L15,410 L16,410 L16,412 L17,412 L17,414 L18,414 L18,417 L19,417 L19,419 L20,419 L20,421 L133,421 L133,419 L134,419 L134,336 L133,336 L133,334 L4,334 L4,333 L2,333 L2,332 L1,332 L1,331 L0,331 L0,330 L-1,330 L-1,328 L-2,328 L-2,92 L-3,92 L-3,91 L-4,91 L-4,90 L-8,90 L-8,89 L-10,89 L-10,88 L-12,88 L-12,87 L-14,87 L-14,86 L-16,86 L-16,85 L-17,85 L-17,84 L-19,84 L-19,83 L-20,83 L-20,82 L-22,82 L-22,81 L-23,81 L-23,80 L-24,80 L-24,79 L-25,79 L-25,78 L-26,78 L-26,77 L-27,77 L-27,76 L-28,76 L-28,75 L-29,75 L-29,73 L-30,73 L-30,72 L-31,72 L-31,71 L-32,71 L-32,69 L-33,69 L-33,67 L-34,67 L-34,65 L-35,65 L-35,62 L-36,62 L-36,59 L-37,59 L-37,55 L-38,55 L-38,47 L-39,47 L-39,41 L-38,41 L-38,36 L-37,36 L-37,32 L-36,32 L-36,29 L-35,29 L-35,27 L-34,27 L-34,25 L-33,25 L-33,23 L-32,23 L-32,21 L-31,21 L-31,20 L-30,20 L-30,18 L-28,18 L-28,16 L-27,16 L-27,15 L-26,15 L-26,14 L-25,14 L-25,13 L-24,13 L-24,12 L-23,12 L-23,11 L-21,11 L-21,10 L-20,10 L-20,9 L-19,9 L-19,8 L-18,8 L-18,7 L-16,7 L-16,6 L-15,6 L-15,5 L-12,5 L-12,4 L-10,4 L-10,3 L-7,3 L-7,2 L-3,2 L-3,1 L0,1 Z M3,20 L3,21 L0,21 L0,22 L-2,22 L-2,23 L-5,23 L-5,24 L-6,24 L-6,25 L-8,25 L-8,26 L-9,26 L-9,27 L-10,27 L-10,28 L-11,28 L-11,29 L-12,29 L-12,30 L-13,30 L-13,31 L-14,31 L-14,33 L-15,33 L-15,34 L-16,34 L-16,37 L-17,37 L-17,40 L-18,40 L-18,52 L-17,52 L-17,55 L-16,55 L-16,58 L-15,58 L-15,59 L-14,59 L-14,61 L-13,61 L-13,62 L-12,62 L-12,64 L-11,64 L-11,65 L-10,65 L-10,66 L-8,66 L-8,67 L-7,67 L-7,68 L-5,68 L-5,69 L-3,69 L-3,70 L-1,70 L-1,71 L2,71 L2,72 L14,72 L14,71 L16,71 L16,70 L19,70 L19,69 L20,69 L20,68 L22,68 L22,67 L24,67 L24,66 L25,66 L25,65 L26,65 L26,64 L27,64 L27,63 L28,63 L28,61 L29,61 L29,60 L30,60 L30,58 L31,58 L31,56 L32,56 L32,54 L33,54 L33,47 L34,47 L34,45 L33,45 L33,39 L32,39 L32,36 L31,36 L31,34 L30,34 L30,32 L29,32 L29,31 L28,31 L28,30 L27,30 L27,28 L26,28 L26,27 L24,27 L24,26 L23,26 L23,25 L22,25 L22,24 L20,24 L20,23 L18,23 L18,22 L16,22 L16,21 L12,21 L12,20 Z M483,20 L483,21 L479,21 L479,22 L477,22 L477,23 L475,23 L475,24 L473,24 L473,25 L472,25 L472,26 L471,26 L471,27 L469,27 L469,28 L468,28 L468,30 L467,30 L467,31 L466,31 L466,32 L465,32 L465,34 L464,34 L464,36 L463,36 L463,39 L462,39 L462,43 L461,43 L461,49 L462,49 L462,53 L463,53 L463,57 L464,57 L464,58 L465,58 L465,60 L466,60 L466,61 L467,61 L467,63 L468,63 L468,64 L469,64 L469,65 L470,65 L470,66 L471,66 L471,67 L472,67 L472,68 L475,68 L475,69 L476,69 L476,70 L479,70 L479,71 L481,71 L481,72 L493,72 L493,71 L496,71 L496,70 L498,70 L498,69 L500,69 L500,68 L502,68 L502,67 L503,67 L503,66 L504,66 L504,65 L506,65 L506,63 L507,63 L507,62 L508,62 L508,61 L509,61 L509,59 L510,59 L510,57 L511,57 L511,55 L512,55 L512,52 L513,52 L513,40 L512,40 L512,37 L511,37 L511,35 L510,35 L510,33 L509,33 L509,31 L508,31 L508,30 L507,30 L507,29 L506,29 L506,28 L505,28 L505,27 L504,27 L504,26 L503,26 L503,25 L501,25 L501,24 L500,24 L500,23 L497,23 L497,22 L495,22 L495,21 L492,21 L492,20 Z M872,53 L872,54 L864,54 L864,55 L862,55 L862,56 L860,56 L860,57 L858,57 L858,58 L857,58 L857,59 L856,59 L856,60 L855,60 L855,61 L854,61 L854,62 L853,62 L853,63 L852,63 L852,64 L851,64 L851,65 L850,65 L850,67 L849,67 L849,69 L848,69 L848,72 L847,72 L847,86 L848,86 L848,89 L849,89 L849,91 L850,91 L850,92 L851,92 L851,94 L852,94 L852,95 L853,95 L853,96 L854,96 L854,98 L856,98 L856,99 L857,99 L857,100 L858,100 L858,101 L860,101 L860,102 L863,102 L863,103 L864,103 L864,104 L870,104 L870,105 L875,105 L875,104 L880,104 L880,103 L882,103 L882,102 L885,102 L885,101 L886,101 L886,100 L888,100 L888,99 L889,99 L889,98 L890,98 L890,97 L891,97 L891,96 L892,96 L892,95 L893,95 L893,94 L894,94 L894,92 L895,92 L895,90 L896,90 L896,89 L897,89 L897,85 L898,85 L898,73 L897,73 L897,69 L896,69 L896,68 L895,68 L895,66 L894,66 L894,64 L893,64 L893,63 L892,63 L892,62 L891,62 L891,61 L890,61 L890,60 L889,60 L889,59 L888,59 L888,58 L886,58 L886,57 L884,57 L884,56 L882,56 L882,55 L880,55 L880,54 L873,54 L873,53 Z M353,61 L353,62 L351,62 L351,63 L348,63 L348,64 L346,64 L346,65 L345,65 L345,66 L343,66 L343,67 L342,67 L342,68 L341,68 L341,70 L340,70 L340,71 L339,71 L339,72 L338,72 L338,74 L337,74 L337,75 L336,75 L336,78 L335,78 L335,81 L334,81 L334,92 L335,92 L335,95 L336,95 L336,97 L337,97 L337,99 L338,99 L338,101 L339,101 L339,102 L340,102 L340,104 L341,104 L341,105 L342,105 L342,106 L343,106 L343,107 L345,107 L345,108 L346,108 L346,109 L348,109 L348,110 L350,110 L350,111 L354,111 L354,112 L359,112 L359,113 L361,113 L361,112 L366,112 L366,111 L369,111 L369,110 L371,110 L371,109 L373,109 L373,108 L375,108 L375,107 L376,107 L376,106 L377,106 L377,105 L379,105 L379,103 L380,103 L380,102 L381,102 L381,101 L382,101 L382,99 L383,99 L383,97 L384,97 L384,94 L385,94 L385,91 L386,91 L386,82 L385,82 L385,79 L384,79 L384,76 L383,76 L383,74 L382,74 L382,72 L381,72 L381,71 L380,71 L380,70 L379,70 L379,68 L377,68 L377,67 L376,67 L376,66 L375,66 L375,65 L373,65 L373,64 L372,64 L372,63 L369,63 L369,62 L367,62 L367,61 Z M124,114 L124,115 L120,115 L120,116 L118,116 L118,117 L116,117 L116,118 L114,118 L114,119 L113,119 L113,120 L112,120 L112,121 L111,121 L111,122 L110,122 L110,123 L109,123 L109,124 L108,124 L108,126 L107,126 L107,127 L106,127 L106,129 L105,129 L105,132 L104,132 L104,137 L103,137 L103,142 L104,142 L104,148 L105,148 L105,150 L106,150 L106,152 L107,152 L107,154 L108,154 L108,155 L109,155 L109,156 L110,156 L110,158 L111,158 L111,159 L112,159 L112,160 L114,160 L114,161 L115,161 L115,162 L117,162 L117,163 L119,163 L119,164 L121,164 L121,165 L127,165 L127,166 L131,166 L131,165 L137,165 L137,164 L139,164 L139,163 L142,163 L142,162 L143,162 L143,161 L145,161 L145,160 L146,160 L146,159 L147,159 L147,158 L148,158 L148,157 L149,157 L149,156 L150,156 L150,154 L151,154 L151,152 L152,152 L152,151 L153,151 L153,148 L154,148 L154,146 L155,146 L155,134 L154,134 L154,131 L153,131 L153,128 L152,128 L152,127 L151,127 L151,125 L150,125 L150,124 L149,124 L149,122 L147,122 L147,121 L146,121 L146,120 L145,120 L145,119 L144,119 L144,118 L142,118 L142,117 L140,117 L140,116 L138,116 L138,115 L134,115 L134,114 Z M774,175 L774,176 L770,176 L770,177 L768,177 L768,178 L766,178 L766,179 L764,179 L764,180 L763,180 L763,181 L761,181 L761,183 L759,183 L759,185 L758,185 L758,186 L757,186 L757,188 L756,188 L756,189 L755,189 L755,192 L754,192 L754,196 L753,196 L753,205 L754,205 L754,209 L755,209 L755,211 L756,211 L756,213 L757,213 L757,215 L758,215 L758,216 L759,216 L759,218 L760,218 L760,219 L761,219 L761,220 L763,220 L763,221 L764,221 L764,222 L766,222 L766,223 L767,223 L767,224 L770,224 L770,225 L772,225 L772,226 L786,226 L786,225 L787,225 L787,224 L790,224 L790,223 L792,223 L792,222 L794,222 L794,221 L795,221 L795,220 L796,220 L796,219 L797,219 L797,218 L798,218 L798,217 L799,217 L799,216 L800,216 L800,214 L801,214 L801,213 L802,213 L802,210 L803,210 L803,208 L804,208 L804,203 L805,203 L805,199 L804,199 L804,193 L803,193 L803,190 L802,190 L802,188 L801,188 L801,187 L800,187 L800,185 L799,185 L799,184 L798,184 L798,183 L797,183 L797,182 L796,182 L796,181 L795,181 L795,180 L794,180 L794,179 L792,179 L792,178 L790,178 L790,177 L788,177 L788,176 L784,176 L784,175 Z M176,226 L176,227 L174,227 L174,228 L172,228 L172,229 L170,229 L170,230 L168,230 L168,231 L167,231 L167,232 L166,232 L166,233 L164,233 L164,234 L163,234 L163,235 L162,235 L162,236 L161,236 L161,237 L160,237 L160,239 L159,239 L159,240 L158,240 L158,242 L157,242 L157,244 L156,244 L156,247 L155,247 L155,251 L154,251 L154,739 L155,739 L155,743 L156,743 L156,746 L157,746 L157,748 L158,748 L158,750 L159,750 L159,751 L160,751 L160,753 L161,753 L161,754 L162,754 L162,755 L163,755 L163,756 L164,756 L164,757 L166,757 L166,758 L167,758 L167,759 L168,759 L168,760 L170,760 L170,761 L172,761 L172,762 L174,762 L174,763 L177,763 L177,764 L459,764 L459,765 L664,765 L664,764 L670,764 L670,763 L673,763 L673,762 L675,762 L675,761 L677,761 L677,760 L679,760 L679,759 L680,759 L680,758 L681,758 L681,757 L683,757 L683,756 L684,756 L684,755 L685,755 L685,754 L686,754 L686,753 L687,753 L687,751 L688,751 L688,750 L689,750 L689,748 L690,748 L690,746 L691,746 L691,743 L692,743 L692,740 L693,740 L693,250 L692,250 L692,247 L691,247 L691,244 L690,244 L690,242 L689,242 L689,240 L688,240 L688,239 L687,239 L687,237 L686,237 L686,236 L685,236 L685,235 L684,235 L684,234 L683,234 L683,233 L682,233 L682,232 L680,232 L680,231 L679,231 L679,230 L677,230 L677,229 L676,229 L676,228 L673,228 L673,227 L671,227 L671,226 Z M-30,405 L-30,406 L-32,406 L-32,407 L-36,407 L-36,408 L-37,408 L-37,409 L-39,409 L-39,410 L-41,410 L-41,411 L-42,411 L-42,412 L-43,412 L-43,413 L-44,413 L-44,414 L-45,414 L-45,415 L-46,415 L-46,417 L-47,417 L-47,418 L-48,418 L-48,420 L-49,420 L-49,422 L-50,422 L-50,426 L-51,426 L-51,437 L-50,437 L-50,441 L-49,441 L-49,443 L-48,443 L-48,445 L-47,445 L-47,446 L-46,446 L-46,447 L-45,447 L-45,449 L-44,449 L-44,450 L-43,450 L-43,451 L-41,451 L-41,452 L-40,452 L-40,453 L-39,453 L-39,454 L-36,454 L-36,455 L-34,455 L-34,456 L-32,456 L-32,457 L-21,457 L-21,456 L-17,456 L-17,455 L-14,455 L-14,454 L-12,454 L-12,453 L-11,453 L-11,452 L-9,452 L-9,451 L-8,451 L-8,450 L-7,450 L-7,449 L-6,449 L-6,448 L-5,448 L-5,446 L-4,446 L-4,445 L-3,445 L-3,443 L-2,443 L-2,441 L-1,441 L-1,439 L0,439 L0,432 L1,432 L1,431 L0,431 L0,424 L-1,424 L-1,421 L-2,421 L-2,419 L-3,419 L-3,417 L-4,417 L-4,416 L-5,416 L-5,415 L-6,415 L-6,414 L-7,414 L-7,412 L-9,412 L-9,411 L-10,411 L-10,410 L-11,410 L-11,409 L-13,409 L-13,408 L-15,408 L-15,407 L-18,407 L-18,406 L-21,406 L-21,405 Z M828,405 L828,406 L825,406 L825,407 L822,407 L822,408 L820,408 L820,409 L818,409 L818,410 L816,410 L816,411 L815,411 L815,412 L814,412 L814,413 L813,413 L813,414 L812,414 L812,416 L811,416 L811,417 L810,417 L810,418 L809,418 L809,421 L808,421 L808,423 L807,423 L807,427 L806,427 L806,436 L807,436 L807,440 L808,440 L808,442 L809,442 L809,444 L810,444 L810,445 L811,445 L811,447 L812,447 L812,448 L813,448 L813,450 L815,450 L815,451 L816,451 L816,452 L817,452 L817,453 L819,453 L819,454 L821,454 L821,455 L823,455 L823,456 L826,456 L826,457 L838,457 L838,456 L841,456 L841,455 L843,455 L843,454 L845,454 L845,453 L847,453 L847,452 L848,452 L848,451 L849,451 L849,450 L850,450 L850,449 L851,449 L851,448 L852,448 L852,447 L853,447 L853,446 L854,446 L854,443 L855,443 L855,442 L856,442 L856,439 L857,439 L857,436 L858,436 L858,427 L857,427 L857,424 L856,424 L856,420 L855,420 L855,419 L854,419 L854,417 L853,417 L853,416 L852,416 L852,414 L851,414 L851,413 L850,413 L850,412 L849,412 L849,411 L847,411 L847,410 L846,410 L846,409 L844,409 L844,408 L842,408 L842,407 L839,407 L839,406 L836,406 L836,405 Z M9,533 L9,534 L6,534 L6,535 L4,535 L4,536 L2,536 L2,537 L0,537 L0,538 L-1,538 L-1,539 L-2,539 L-2,540 L-3,540 L-3,541 L-4,541 L-4,542 L-5,542 L-5,543 L-6,543 L-6,544 L-7,544 L-7,546 L-8,546 L-8,548 L-9,548 L-9,551 L-10,551 L-10,557 L-11,557 L-11,560 L-10,560 L-10,566 L-9,566 L-9,569 L-8,569 L-8,571 L-7,571 L-7,573 L-6,573 L-6,574 L-5,574 L-5,575 L-4,575 L-4,576 L-3,576 L-3,577 L-2,577 L-2,578 L-1,578 L-1,579 L0,579 L0,580 L1,580 L1,581 L4,581 L4,582 L5,582 L5,583 L9,583 L9,584 L13,584 L13,585 L18,585 L18,584 L22,584 L22,583 L25,583 L25,582 L27,582 L27,581 L29,581 L29,580 L30,580 L30,579 L32,579 L32,578 L33,578 L33,577 L34,577 L34,576 L35,576 L35,574 L36,574 L36,573 L37,573 L37,572 L38,572 L38,570 L39,570 L39,568 L40,568 L40,564 L41,564 L41,553 L40,553 L40,549 L39,549 L39,547 L38,547 L38,545 L37,545 L37,544 L36,544 L36,542 L35,542 L35,541 L34,541 L34,540 L33,540 L33,539 L32,539 L32,538 L30,538 L30,537 L29,537 L29,536 L26,536 L26,535 L24,535 L24,534 L22,534 L22,533 Z M866,533 L866,534 L863,534 L863,535 L861,535 L861,536 L859,536 L859,537 L858,537 L858,538 L856,538 L856,539 L855,539 L855,540 L854,540 L854,541 L853,541 L853,542 L852,542 L852,544 L851,544 L851,545 L850,545 L850,547 L849,547 L849,549 L848,549 L848,551 L847,551 L847,566 L848,566 L848,568 L849,568 L849,571 L850,571 L850,572 L851,572 L851,574 L852,574 L852,575 L853,575 L853,576 L854,576 L854,577 L855,577 L855,578 L856,578 L856,579 L857,579 L857,580 L858,580 L858,581 L861,581 L861,582 L862,582 L862,583 L866,583 L866,584 L870,584 L870,585 L875,585 L875,584 L879,584 L879,583 L882,583 L882,582 L884,582 L884,581 L886,581 L886,580 L888,580 L888,579 L889,579 L889,578 L890,578 L890,577 L891,577 L891,576 L892,576 L892,575 L893,575 L893,573 L894,573 L894,572 L895,572 L895,570 L896,570 L896,569 L897,569 L897,565 L898,565 L898,553 L897,553 L897,549 L896,549 L896,547 L895,547 L895,545 L894,545 L894,543 L893,543 L893,542 L892,542 L892,541 L891,541 L891,540 L890,540 L890,539 L889,539 L889,538 L887,538 L887,537 L886,537 L886,536 L884,536 L884,535 L882,535 L882,534 L879,534 L879,533 Z M61,764 L61,765 L59,765 L59,766 L57,766 L57,767 L55,767 L55,768 L53,768 L53,769 L52,769 L52,770 L51,770 L51,771 L50,771 L50,772 L49,772 L49,773 L48,773 L48,774 L47,774 L47,776 L46,776 L46,777 L45,777 L45,779 L44,779 L44,782 L43,782 L43,789 L42,789 L42,790 L43,790 L43,797 L44,797 L44,800 L45,800 L45,802 L46,802 L46,803 L47,803 L47,805 L48,805 L48,806 L49,806 L49,807 L50,807 L50,808 L51,808 L51,809 L52,809 L52,810 L53,810 L53,811 L55,811 L55,812 L57,812 L57,813 L59,813 L59,814 L62,814 L62,815 L75,815 L75,814 L78,814 L78,813 L80,813 L80,812 L82,812 L82,811 L83,811 L83,810 L85,810 L85,809 L86,809 L86,808 L87,808 L87,807 L88,807 L88,806 L89,806 L89,805 L90,805 L90,802 L91,802 L91,801 L92,801 L92,798 L93,798 L93,796 L94,796 L94,783 L93,783 L93,781 L92,781 L92,778 L91,778 L91,777 L90,777 L90,775 L89,775 L89,774 L88,774 L88,772 L87,772 L87,771 L86,771 L86,770 L85,770 L85,769 L83,769 L83,768 L82,768 L82,767 L80,767 L80,766 L77,766 L77,765 L75,765 L75,764 Z M713,824 L713,825 L709,825 L709,826 L708,826 L708,827 L705,827 L705,828 L704,828 L704,829 L703,829 L703,830 L701,830 L701,831 L700,831 L700,832 L699,832 L699,833 L698,833 L698,835 L697,835 L697,836 L696,836 L696,837 L695,837 L695,839 L694,839 L694,842 L693,842 L693,846 L692,846 L692,854 L693,854 L693,858 L694,858 L694,861 L695,861 L695,863 L696,863 L696,865 L697,865 L697,866 L698,866 L698,867 L699,867 L699,868 L700,868 L700,869 L701,869 L701,870 L702,870 L702,871 L704,871 L704,872 L705,872 L705,873 L707,873 L707,874 L709,874 L709,875 L713,875 L713,876 L723,876 L723,875 L727,875 L727,874 L729,874 L729,873 L731,873 L731,872 L733,872 L733,871 L734,871 L734,870 L735,870 L735,869 L736,869 L736,868 L737,868 L737,867 L738,867 L738,866 L739,866 L739,864 L740,864 L740,863 L741,863 L741,861 L742,861 L742,859 L743,859 L743,854 L744,854 L744,846 L743,846 L743,841 L742,841 L742,839 L741,839 L741,837 L740,837 L740,836 L739,836 L739,834 L738,834 L738,833 L737,833 L737,832 L736,832 L736,831 L735,831 L735,830 L734,830 L734,829 L732,829 L732,828 L731,828 L731,827 L728,827 L728,826 L726,826 L726,825 L721,825 L721,824 Z M485,877 L485,878 L481,878 L481,879 L478,879 L478,880 L476,880 L476,881 L474,881 L474,882 L472,882 L472,883 L471,883 L471,884 L469,884 L469,886 L468,886 L468,887 L467,887 L467,888 L466,888 L466,889 L465,889 L465,891 L464,891 L464,893 L463,893 L463,896 L462,896 L462,900 L461,900 L461,906 L462,906 L462,910 L463,910 L463,914 L464,914 L464,915 L465,915 L465,917 L466,917 L466,919 L467,919 L467,920 L468,920 L468,921 L469,921 L469,922 L470,922 L470,923 L471,923 L471,924 L472,924 L472,925 L474,925 L474,926 L476,926 L476,927 L478,927 L478,928 L480,928 L480,929 L494,929 L494,928 L496,928 L496,927 L499,927 L499,926 L501,926 L501,925 L502,925 L502,924 L504,924 L504,923 L505,923 L505,922 L506,922 L506,921 L507,921 L507,920 L508,920 L508,918 L509,918 L509,917 L510,917 L510,914 L511,914 L511,912 L512,912 L512,909 L513,909 L513,898 L512,898 L512,894 L511,894 L511,892 L510,892 L510,890 L509,890 L509,889 L508,889 L508,887 L507,887 L507,886 L506,886 L506,885 L505,885 L505,884 L504,884 L504,883 L502,883 L502,882 L501,882 L501,881 L499,881 L499,880 L497,880 L497,879 L494,879 L494,878 L490,878 L490,877 Z M-29,885 L-29,886 L-34,886 L-34,887 L-35,887 L-35,888 L-38,888 L-38,889 L-40,889 L-40,890 L-41,890 L-41,891 L-42,891 L-42,892 L-43,892 L-43,893 L-44,893 L-44,894 L-45,894 L-45,895 L-46,895 L-46,896 L-47,896 L-47,898 L-48,898 L-48,900 L-49,900 L-49,901 L-50,901 L-50,906 L-51,906 L-51,916 L-50,916 L-50,921 L-49,921 L-49,922 L-48,922 L-48,924 L-47,924 L-47,926 L-46,926 L-46,927 L-45,927 L-45,928 L-44,928 L-44,929 L-43,929 L-43,930 L-42,930 L-42,931 L-41,931 L-41,932 L-40,932 L-40,933 L-38,933 L-38,934 L-36,934 L-36,935 L-34,935 L-34,936 L-17,936 L-17,935 L-15,935 L-15,934 L-13,934 L-13,933 L-11,933 L-11,932 L-10,932 L-10,931 L-8,931 L-8,930 L-7,930 L-7,929 L-6,929 L-6,928 L-5,928 L-5,926 L-4,926 L-4,925 L-3,925 L-3,923 L-2,923 L-2,921 L-1,921 L-1,918 L0,918 L0,904 L-1,904 L-1,901 L-2,901 L-2,899 L-3,899 L-3,897 L-4,897 L-4,895 L-5,895 L-5,894 L-6,894 L-6,893 L-7,893 L-7,892 L-8,892 L-8,891 L-10,891 L-10,890 L-11,890 L-11,889 L-13,889 L-13,888 L-15,888 L-15,887 L-17,887 L-17,886 L-22,886 L-22,885 Z M354,918 L354,919 L352,919 L352,920 L349,920 L349,921 L347,921 L347,922 L345,922 L345,923 L344,923 L344,924 L343,924 L343,925 L342,925 L342,926 L341,926 L341,927 L340,927 L340,928 L339,928 L339,929 L338,929 L338,931 L337,931 L337,933 L336,933 L336,935 L335,935 L335,938 L334,938 L334,950 L335,950 L335,952 L336,952 L336,955 L337,955 L337,957 L338,957 L338,958 L339,958 L339,960 L340,960 L340,961 L341,961 L341,962 L342,962 L342,963 L343,963 L343,964 L344,964 L344,965 L346,965 L346,966 L348,966 L348,967 L350,967 L350,968 L353,968 L353,969 L356,969 L356,970 L364,970 L364,969 L367,969 L367,968 L370,968 L370,967 L372,967 L372,966 L374,966 L374,965 L375,965 L375,964 L376,964 L376,963 L378,963 L378,962 L379,962 L379,960 L380,960 L380,959 L381,959 L381,958 L382,958 L382,956 L383,956 L383,954 L384,954 L384,951 L385,951 L385,948 L386,948 L386,940 L385,940 L385,937 L384,937 L384,933 L383,933 L383,931 L382,931 L382,929 L381,929 L381,928 L380,928 L380,927 L379,927 L379,926 L378,926 L378,925 L377,925 L377,924 L376,924 L376,923 L375,923 L375,922 L373,922 L373,921 L371,921 L371,920 L368,920 L368,919 L366,919 L366,918 Z M833,918 L833,919 L831,919 L831,920 L828,920 L828,921 L827,921 L827,922 L825,922 L825,923 L823,923 L823,924 L822,924 L822,925 L821,925 L821,926 L820,926 L820,928 L819,928 L819,929 L818,929 L818,930 L817,930 L817,932 L816,932 L816,934 L815,934 L815,937 L814,937 L814,950 L815,950 L815,954 L816,954 L816,956 L817,956 L817,957 L818,957 L818,959 L819,959 L819,960 L820,960 L820,961 L821,961 L821,962 L822,962 L822,963 L823,963 L823,964 L824,964 L824,965 L826,965 L826,966 L827,966 L827,967 L830,967 L830,968 L832,968 L832,969 L835,969 L835,970 L843,970 L843,969 L847,969 L847,968 L849,968 L849,967 L852,967 L852,966 L853,966 L853,965 L855,965 L855,964 L856,964 L856,963 L857,963 L857,962 L858,962 L858,961 L859,961 L859,960 L860,960 L860,959 L861,959 L861,957 L862,957 L862,956 L863,956 L863,953 L864,953 L864,951 L865,951 L865,937 L864,937 L864,934 L863,934 L863,932 L862,932 L862,930 L861,930 L861,929 L860,929 L860,928 L859,928 L859,926 L858,926 L858,925 L857,925 L857,924 L856,924 L856,923 L854,923 L854,922 L852,922 L852,921 L851,921 L851,920 L848,920 L848,919 L846,919 L846,918 Z " fill="#000000" transform="translate(132,64)"/>
<path d="M0,0 L450,0 L450,1 L453,1 L453,2 L455,2 L455,3 L456,3 L456,4 L457,4 L457,5 L458,5 L458,6 L459,6 L459,7 L460,7 L460,9 L461,9 L461,12 L462,12 L462,463 L461,463 L461,466 L460,466 L460,468 L459,468 L459,469 L458,469 L458,470 L457,470 L457,471 L456,471 L456,472 L455,472 L455,473 L453,473 L453,474 L451,474 L451,475 L-1,475 L-1,474 L-4,474 L-4,473 L-5,473 L-5,472 L-7,472 L-7,471 L-8,471 L-8,470 L-9,470 L-9,468 L-10,468 L-10,466 L-11,466 L-11,464 L-12,464 L-12,11 L-11,11 L-11,9 L-10,9 L-10,7 L-9,7 L-9,6 L-8,6 L-8,5 L-7,5 L-7,4 L-6,4 L-6,3 L-5,3 L-5,2 L-3,2 L-3,1 L0,1 Z M30,32 L30,33 L28,33 L28,34 L26,34 L26,35 L25,35 L25,36 L24,36 L24,37 L23,37 L23,38 L22,38 L22,40 L21,40 L21,42 L20,42 L20,46 L19,46 L19,120 L20,120 L20,125 L21,125 L21,127 L22,127 L22,128 L23,128 L23,129 L24,129 L24,130 L25,130 L25,131 L26,131 L26,132 L27,132 L27,133 L29,133 L29,134 L33,134 L33,135 L164,135 L164,134 L168,134 L168,133 L169,133 L169,132 L171,132 L171,131 L172,131 L172,130 L173,130 L173,129 L174,129 L174,128 L175,128 L175,126 L176,126 L176,124 L177,124 L177,42 L176,42 L176,40 L175,40 L175,39 L174,39 L174,37 L173,37 L173,36 L172,36 L172,35 L170,35 L170,34 L169,34 L169,33 L166,33 L166,32 Z M419,32 L419,33 L418,33 L418,34 L417,34 L417,35 L416,35 L416,36 L415,36 L415,51 L416,51 L416,53 L418,53 L418,54 L419,54 L419,55 L426,55 L426,54 L428,54 L428,53 L429,53 L429,51 L430,51 L430,36 L429,36 L429,35 L428,35 L428,34 L427,34 L427,33 L426,33 L426,32 Z M422,71 L422,72 L419,72 L419,73 L417,73 L417,74 L416,74 L416,76 L415,76 L415,83 L416,83 L416,84 L417,84 L417,85 L418,85 L418,86 L419,86 L419,87 L426,87 L426,86 L427,86 L427,85 L428,85 L428,84 L429,84 L429,83 L430,83 L430,76 L429,76 L429,74 L428,74 L428,73 L426,73 L426,72 L423,72 L423,71 Z M223,162 L223,163 L212,163 L212,164 L207,164 L207,165 L204,165 L204,166 L201,166 L201,167 L198,167 L198,168 L195,168 L195,169 L193,169 L193,170 L191,170 L191,171 L189,171 L189,172 L187,172 L187,173 L186,173 L186,174 L184,174 L184,175 L182,175 L182,176 L181,176 L181,177 L180,177 L180,178 L178,178 L178,179 L177,179 L177,180 L176,180 L176,181 L175,181 L175,182 L174,182 L174,183 L173,183 L173,184 L172,184 L172,185 L171,185 L171,186 L170,186 L170,187 L169,187 L169,188 L168,188 L168,189 L167,189 L167,191 L166,191 L166,192 L165,192 L165,193 L164,193 L164,195 L163,195 L163,196 L162,196 L162,198 L161,198 L161,199 L160,199 L160,201 L159,201 L159,203 L158,203 L158,205 L157,205 L157,207 L156,207 L156,209 L155,209 L155,212 L154,212 L154,215 L153,215 L153,219 L152,219 L152,222 L151,222 L151,229 L150,229 L150,247 L151,247 L151,253 L152,253 L152,257 L153,257 L153,260 L154,260 L154,263 L155,263 L155,266 L156,266 L156,268 L157,268 L157,271 L158,271 L158,273 L159,273 L159,274 L160,274 L160,276 L161,276 L161,278 L162,278 L162,279 L163,279 L163,281 L164,281 L164,282 L165,282 L165,283 L166,283 L166,285 L167,285 L167,286 L168,286 L168,287 L169,287 L169,288 L170,288 L170,289 L171,289 L171,290 L172,290 L172,291 L173,291 L173,292 L174,292 L174,293 L175,293 L175,294 L176,294 L176,295 L177,295 L177,296 L178,296 L178,297 L180,297 L180,298 L181,298 L181,299 L182,299 L182,300 L184,300 L184,301 L185,301 L185,302 L187,302 L187,303 L189,303 L189,304 L190,304 L190,305 L193,305 L193,306 L195,306 L195,307 L197,307 L197,308 L200,308 L200,309 L203,309 L203,310 L206,310 L206,311 L211,311 L211,312 L217,312 L217,313 L233,313 L233,312 L239,312 L239,311 L243,311 L243,310 L246,310 L246,309 L249,309 L249,308 L252,308 L252,307 L255,307 L255,306 L257,306 L257,305 L259,305 L259,304 L261,304 L261,303 L263,303 L263,302 L265,302 L265,301 L266,301 L266,300 L268,300 L268,299 L269,299 L269,298 L270,298 L270,297 L271,297 L271,296 L273,296 L273,295 L274,295 L274,294 L275,294 L275,293 L276,293 L276,292 L277,292 L277,291 L278,291 L278,290 L279,290 L279,289 L280,289 L280,288 L281,288 L281,287 L282,287 L282,286 L283,286 L283,284 L284,284 L284,283 L285,283 L285,282 L286,282 L286,280 L287,280 L287,279 L288,279 L288,277 L289,277 L289,276 L290,276 L290,274 L291,274 L291,272 L292,272 L292,270 L293,270 L293,268 L294,268 L294,265 L295,265 L295,263 L296,263 L296,261 L297,261 L297,256 L298,256 L298,252 L299,252 L299,245 L300,245 L300,230 L299,230 L299,223 L298,223 L298,219 L297,219 L297,215 L296,215 L296,213 L295,213 L295,210 L294,210 L294,207 L293,207 L293,205 L292,205 L292,203 L291,203 L291,201 L290,201 L290,200 L289,200 L289,198 L288,198 L288,196 L287,196 L287,195 L286,195 L286,194 L285,194 L285,192 L284,192 L284,191 L283,191 L283,190 L282,190 L282,188 L281,188 L281,187 L280,187 L280,186 L279,186 L279,185 L278,185 L278,184 L277,184 L277,183 L276,183 L276,182 L275,182 L275,181 L274,181 L274,180 L273,180 L273,179 L271,179 L271,178 L270,178 L270,177 L269,177 L269,176 L267,176 L267,175 L266,175 L266,174 L264,174 L264,173 L262,173 L262,172 L261,172 L261,171 L259,171 L259,170 L257,170 L257,169 L255,169 L255,168 L252,168 L252,167 L249,167 L249,166 L246,166 L246,165 L242,165 L242,164 L237,164 L237,163 L227,163 L227,162 Z M219,333 L219,334 L216,334 L216,335 L214,335 L214,336 L212,336 L212,337 L211,337 L211,338 L209,338 L209,339 L208,339 L208,341 L207,341 L207,342 L206,342 L206,343 L205,343 L205,345 L204,345 L204,347 L203,347 L203,349 L202,349 L202,354 L201,354 L201,422 L202,422 L202,427 L203,427 L203,430 L204,430 L204,432 L205,432 L205,433 L206,433 L206,434 L207,434 L207,436 L208,436 L208,437 L209,437 L209,438 L211,438 L211,439 L212,439 L212,440 L214,440 L214,441 L215,441 L215,442 L218,442 L218,443 L232,443 L232,442 L235,442 L235,441 L236,441 L236,440 L238,440 L238,439 L239,439 L239,438 L240,438 L240,437 L242,437 L242,436 L243,436 L243,434 L244,434 L244,433 L245,433 L245,431 L246,431 L246,429 L247,429 L247,426 L248,426 L248,421 L249,421 L249,356 L248,356 L248,350 L247,350 L247,347 L246,347 L246,345 L245,345 L245,343 L244,343 L244,342 L243,342 L243,341 L242,341 L242,340 L241,340 L241,339 L240,339 L240,338 L239,338 L239,337 L238,337 L238,336 L236,336 L236,335 L234,335 L234,334 L230,334 L230,333 Z " fill="#000000" transform="translate(331,322)"/>
<path d="M0,0 L125,0 L125,1 L126,1 L126,72 L-1,72 L-1,1 L0,1 Z " fill="#000000" transform="translate(367,369)"/>
<path d="M0,0 L13,0 L13,1 L19,1 L19,2 L23,2 L23,3 L26,3 L26,4 L29,4 L29,5 L31,5 L31,6 L33,6 L33,7 L35,7 L35,8 L37,8 L37,9 L39,9 L39,10 L40,10 L40,11 L41,11 L41,12 L43,12 L43,13 L44,13 L44,14 L45,14 L45,15 L46,15 L46,16 L48,16 L48,17 L49,17 L49,18 L50,18 L50,19 L51,19 L51,21 L52,21 L52,22 L53,22 L53,23 L54,23 L54,24 L55,24 L55,26 L56,26 L56,27 L57,27 L57,29 L58,29 L58,30 L59,30 L59,32 L60,32 L60,34 L61,34 L61,36 L62,36 L62,39 L63,39 L63,42 L64,42 L64,46 L65,46 L65,51 L66,51 L66,68 L65,68 L65,74 L64,74 L64,78 L63,78 L63,80 L62,80 L62,83 L61,83 L61,85 L60,85 L60,87 L59,87 L59,89 L58,89 L58,91 L57,91 L57,92 L56,92 L56,94 L55,94 L55,95 L54,95 L54,96 L53,96 L53,98 L52,98 L52,99 L51,99 L51,100 L50,100 L50,101 L49,101 L49,102 L48,102 L48,103 L47,103 L47,104 L46,104 L46,105 L45,105 L45,106 L43,106 L43,107 L42,107 L42,108 L41,108 L41,109 L39,109 L39,110 L38,110 L38,111 L36,111 L36,112 L34,112 L34,113 L32,113 L32,114 L30,114 L30,115 L27,115 L27,116 L24,116 L24,117 L21,117 L21,118 L15,118 L15,119 L-1,119 L-1,118 L-7,118 L-7,117 L-10,117 L-10,116 L-13,116 L-13,115 L-16,115 L-16,114 L-18,114 L-18,113 L-20,113 L-20,112 L-22,112 L-22,111 L-24,111 L-24,110 L-25,110 L-25,109 L-27,109 L-27,108 L-28,108 L-28,107 L-29,107 L-29,106 L-31,106 L-31,105 L-32,105 L-32,104 L-33,104 L-33,103 L-34,103 L-34,102 L-35,102 L-35,101 L-36,101 L-36,100 L-37,100 L-37,99 L-38,99 L-38,98 L-39,98 L-39,97 L-40,97 L-40,95 L-41,95 L-41,94 L-42,94 L-42,93 L-43,93 L-43,91 L-44,91 L-44,89 L-45,89 L-45,88 L-46,88 L-46,86 L-47,86 L-47,83 L-48,83 L-48,81 L-49,81 L-49,78 L-50,78 L-50,75 L-51,75 L-51,70 L-52,70 L-52,49 L-51,49 L-51,45 L-50,45 L-50,41 L-49,41 L-49,38 L-48,38 L-48,36 L-47,36 L-47,34 L-46,34 L-46,32 L-45,32 L-45,30 L-44,30 L-44,28 L-43,28 L-43,27 L-42,27 L-42,25 L-41,25 L-41,24 L-40,24 L-40,23 L-39,23 L-39,21 L-38,21 L-38,20 L-37,20 L-37,19 L-36,19 L-36,18 L-35,18 L-35,17 L-34,17 L-34,16 L-33,16 L-33,15 L-32,15 L-32,14 L-31,14 L-31,13 L-29,13 L-29,12 L-28,12 L-28,11 L-27,11 L-27,10 L-25,10 L-25,9 L-23,9 L-23,8 L-22,8 L-22,7 L-20,7 L-20,6 L-18,6 L-18,5 L-15,5 L-15,4 L-12,4 L-12,3 L-9,3 L-9,2 L-5,2 L-5,1 L0,1 Z M1,16 L1,17 L-4,17 L-4,18 L-7,18 L-7,19 L-10,19 L-10,20 L-12,20 L-12,21 L-14,21 L-14,22 L-16,22 L-16,23 L-17,23 L-17,24 L-18,24 L-18,25 L-20,25 L-20,26 L-21,26 L-21,27 L-22,27 L-22,28 L-23,28 L-23,29 L-24,29 L-24,30 L-25,30 L-25,31 L-26,31 L-26,32 L-27,32 L-27,33 L-28,33 L-28,34 L-29,34 L-29,36 L-30,36 L-30,38 L-31,38 L-31,39 L-32,39 L-32,41 L-33,41 L-33,44 L-34,44 L-34,46 L-35,46 L-35,50 L-36,50 L-36,58 L-37,58 L-37,61 L-36,61 L-36,69 L-35,69 L-35,73 L-34,73 L-34,76 L-33,76 L-33,78 L-32,78 L-32,80 L-31,80 L-31,82 L-30,82 L-30,83 L-29,83 L-29,85 L-28,85 L-28,86 L-27,86 L-27,88 L-26,88 L-26,89 L-25,89 L-25,90 L-24,90 L-24,91 L-23,91 L-23,92 L-22,92 L-22,93 L-20,93 L-20,94 L-19,94 L-19,95 L-18,95 L-18,96 L-16,96 L-16,97 L-15,97 L-15,98 L-13,98 L-13,99 L-10,99 L-10,100 L-8,100 L-8,101 L-4,101 L-4,102 L1,102 L1,103 L13,103 L13,102 L18,102 L18,101 L21,101 L21,100 L24,100 L24,99 L26,99 L26,98 L28,98 L28,97 L30,97 L30,96 L32,96 L32,95 L33,95 L33,94 L34,94 L34,93 L35,93 L35,92 L37,92 L37,91 L38,91 L38,90 L39,90 L39,88 L40,88 L40,87 L41,87 L41,86 L42,86 L42,85 L43,85 L43,83 L44,83 L44,81 L45,81 L45,80 L46,80 L46,77 L47,77 L47,75 L48,75 L48,72 L49,72 L49,68 L50,68 L50,51 L49,51 L49,47 L48,47 L48,44 L47,44 L47,42 L46,42 L46,40 L45,40 L45,38 L44,38 L44,36 L43,36 L43,35 L42,35 L42,33 L41,33 L41,32 L40,32 L40,31 L39,31 L39,30 L38,30 L38,29 L37,29 L37,28 L36,28 L36,27 L35,27 L35,26 L34,26 L34,25 L32,25 L32,24 L31,24 L31,23 L29,23 L29,22 L28,22 L28,21 L26,21 L26,20 L23,20 L23,19 L21,19 L21,18 L18,18 L18,17 L12,17 L12,16 Z " fill="#000000" transform="translate(549,500)"/>
<path d="M0,0 L11,0 L11,1 L15,1 L15,2 L17,2 L17,3 L19,3 L19,4 L21,4 L21,5 L22,5 L22,6 L23,6 L23,7 L25,7 L25,8 L26,8 L26,9 L27,9 L27,11 L28,11 L28,12 L29,12 L29,13 L30,13 L30,15 L31,15 L31,17 L32,17 L32,20 L33,20 L33,26 L34,26 L34,29 L33,29 L33,35 L32,35 L32,38 L31,38 L31,40 L30,40 L30,42 L29,42 L29,44 L28,44 L28,45 L27,45 L27,46 L26,46 L26,47 L25,47 L25,48 L24,48 L24,49 L23,49 L23,50 L21,50 L21,51 L20,51 L20,52 L18,52 L18,53 L16,53 L16,54 L13,54 L13,55 L-1,55 L-1,54 L-4,54 L-4,53 L-6,53 L-6,52 L-8,52 L-8,51 L-10,51 L-10,50 L-11,50 L-11,49 L-12,49 L-12,48 L-13,48 L-13,47 L-14,47 L-14,46 L-15,46 L-15,45 L-16,45 L-16,44 L-17,44 L-17,42 L-18,42 L-18,41 L-19,41 L-19,39 L-20,39 L-20,36 L-21,36 L-21,30 L-22,30 L-22,25 L-21,25 L-21,20 L-20,20 L-20,17 L-19,17 L-19,15 L-18,15 L-18,13 L-17,13 L-17,12 L-16,12 L-16,10 L-15,10 L-15,9 L-14,9 L-14,8 L-13,8 L-13,7 L-12,7 L-12,6 L-10,6 L-10,5 L-9,5 L-9,4 L-7,4 L-7,3 L-6,3 L-6,2 L-3,2 L-3,1 L0,1 Z " fill="#000000" transform="translate(550,532)"/>
<path d="M0,0 L6,0 L6,1 L8,1 L8,2 L9,2 L9,3 L10,3 L10,5 L11,5 L11,73 L10,73 L10,75 L9,75 L9,76 L8,76 L8,77 L7,77 L7,78 L4,78 L4,79 L1,79 L1,78 L-1,78 L-1,77 L-3,77 L-3,75 L-4,75 L-4,74 L-5,74 L-5,5 L-4,5 L-4,3 L-3,3 L-3,2 L-2,2 L-2,1 L0,1 Z " fill="#000000" transform="translate(553,671)"/>
</svg>
