<?xml version="1.0" encoding="UTF-8"?>
<svg
    viewBox="666 666 2268 2268"
    xmlns="http://www.w3.org/2000/svg"
  >
    <path
      fill="currentColor"
      d="m1800 1516.6c-75.16 0-147.24 29.855-200.39 83.004-53.148 53.145-83.004 125.23-83.004 200.39s29.855 147.24 83.004 200.39c53.145 53.145 125.23 83.004 200.39 83.004s147.24-29.859 200.39-83.004c53.145-53.148 83.004-125.23 83.004-200.39-0.082031-75.133-29.965-147.17-83.094-200.3-53.129-53.129-125.16-83.012-200.3-83.094zm0 491.21c-55.117 0-107.98-21.898-146.95-60.871-38.977-38.973-60.871-91.836-60.871-146.95s21.895-107.98 60.871-146.95c38.973-38.977 91.832-60.871 146.95-60.871s107.98 21.895 146.95 60.871c38.973 38.973 60.871 91.832 60.871 146.95-0.0625 55.102-21.98 107.92-60.941 146.88-38.961 38.961-91.781 60.879-146.88 60.941z"
    />
    <path
      fill="currentColor"
      d="m1800 2329c-10.016 0.015625-19.621 4-26.703 11.082-7.082 7.0859-11.07 16.688-11.082 26.703v302.29c0 13.496 7.2031 25.973 18.895 32.723s26.094 6.75 37.785 0c11.691-6.75 18.891-19.227 18.891-32.723v-302.29c-0.011718-10.016-3.9961-19.617-11.078-26.703-7.0859-7.082-16.688-11.066-26.707-11.082z"
    />
    <path
      fill="currentColor"
      d="m893.14 893.14h604.6v340.07h-604.6z"
    />
    <path
      fill="currentColor"
      d="m1932.2 1800c0 73.039-59.211 132.25-132.25 132.25s-132.25-59.211-132.25-132.25 59.211-132.25 132.25-132.25 132.25 59.211 132.25 132.25"
    />
    <path
      fill="currentColor"
      d="m2858 666.43h-2116c-20.035 0.019531-39.246 7.9883-53.414 22.156-14.168 14.168-22.137 33.379-22.156 53.414v2116c0.019531 20.039 7.9883 39.246 22.156 53.418 14.168 14.168 33.379 22.133 53.414 22.156h2116c20.039-0.023438 39.246-7.9883 53.418-22.156 14.168-14.172 22.133-33.379 22.156-53.418v-2116c-0.023438-20.035-7.9883-39.246-22.156-53.414-14.172-14.168-33.379-22.137-53.418-22.156zm-2040.4 566.79v-340.07c0.019531-20.039 7.9883-39.246 22.156-53.414s33.375-22.137 53.414-22.156h604.57c20.039 0.019531 39.246 7.9883 53.414 22.156 14.168 14.168 22.137 33.375 22.156 53.414v340.07c-0.019531 20.039-7.9883 39.246-22.156 53.414-14.168 14.168-33.375 22.137-53.414 22.156h-604.57c-20.039-0.019531-39.246-7.9883-53.414-22.156-14.168-14.168-22.137-33.375-22.156-53.414zm1095.8 1435.9c0 40.496-21.605 77.918-56.68 98.168-35.074 20.25-78.285 20.25-113.36 0-35.074-20.25-56.68-57.672-56.68-98.168v-302.29c0-40.496 21.605-77.918 56.68-98.168 35.07-20.25 78.281-20.25 113.36 0 35.074 20.25 56.68 57.672 56.68 98.168zm-113.36-510.11c-95.203 0-186.51-37.82-253.82-105.14-67.32-67.32-105.14-158.62-105.14-253.83s37.82-186.51 105.14-253.82c67.316-67.32 158.62-105.14 253.82-105.14s186.51 37.82 253.83 105.14c67.316 67.316 105.14 158.62 105.14 253.82-0.10938 95.172-37.961 186.41-105.26 253.71-67.293 67.297-158.54 105.15-253.71 105.26zm971.47-1087.9c-9.5859 9.5859-23.555 13.328-36.648 9.8203-13.094-3.5078-23.32-13.734-26.828-26.828-3.5078-13.094 0.23438-27.062 9.8203-36.648 9.5859-9.582 23.555-13.324 36.648-9.8164 13.09 3.5078 23.32 13.734 26.828 26.828 3.5078 13.09-0.23828 27.062-9.8203 36.645zm10.957-177.97c0 13.5-7.2031 25.973-18.895 32.723-11.688 6.75-26.094 6.75-37.785 0s-18.891-19.223-18.891-32.723v-37.785c0-13.5 7.1992-25.977 18.891-32.723 11.691-6.75 26.098-6.75 37.785 0 11.691 6.7461 18.895 19.223 18.895 32.723z"
    />
  </svg>
